Coordinates
version=1
nRows=9
nColumns=24
inDegrees=yes

Units are S.I. units (second, meters, Newtons, ...)
Angles are in degrees.

endheader
time	pelvis_tilt	pelvis_list	pelvis_rotation	pelvis_tx	pelvis_ty	pelvis_tz	hip_flexion_r	hip_adduction_r	hip_rotation_r	knee_angle_r	ankle_angle_r	subtalar_angle_r	mtp_angle_r	hip_flexion_l	hip_adduction_l	hip_rotation_l	knee_angle_l	ankle_angle_l	subtalar_angle_l	mtp_angle_l	lumbar_extension	lumbar_bending	lumbar_rotation
      0.01000000	     68.64634307	      4.76022820	     -1.24634650	      0.55545652	      1.05819960	     -0.30529196	     -0.16537800	    -12.98928436	      0.89046931	    -63.11936790	    -18.27178044	     -3.26318469	      0.00000000	      1.80550650	     -5.91186012	      7.19438049	      1.91778351	    -20.14329324	     12.12515598	      0.00000000	      0.00000000	      0.00000000	      0.00000000
      0.02000000	     68.64211593	      4.76431746	     -1.24671036	      0.55548298	      1.05823285	     -0.30526060	     -0.16738353	    -12.98985915	      0.89149929	    -63.11524302	    -18.26839427	     -3.26647267	      0.00000000	      1.80710358	     -5.91084075	      7.19710889	      1.91027445	    -20.13479700	     12.14625612	      0.00000000	      0.00000000	      0.00000000	      0.00000000
      0.03000000	     68.63888920	      4.76709073	     -1.24681578	      0.55549896	      1.05825394	     -0.30523794	     -0.16849545	    -12.98975999	      0.89248241	    -63.11249878	    -18.26480591	     -3.27020938	      0.00000000	      1.81010784	     -5.91074686	      7.19931155	      1.90308876	    -20.12581665	     12.16451229	      0.00000000	      0.00000000	      0.00000000	      0.00000000
      0.04000000	     68.63672459	      4.76835645	     -1.24656706	      0.55550719	      1.05826240	     -0.30522329	     -0.16848915	    -12.98892364	      0.89351378	    -63.11144154	    -18.26111071	     -3.27407321	      0.00000000	      1.81462617	     -5.91173931	      7.20037755	      1.89659530	    -20.11687546	     12.17730233	      0.00000000	      0.00000000	      0.00000000	      0.00000000
      0.05000000	     68.63526812	      4.76828829	     -1.24585453	      0.55551282	      1.05825834	     -0.30521520	     -0.16727608	    -12.98740641	      0.89472584	    -63.11206414	    -18.25751056	     -3.27746442	      0.00000000	      1.82032641	     -5.91375824	      7.19944130	      1.89113408	    -20.10896127	     12.18139673	      0.00000000	      0.00000000	      0.00000000	      0.00000000
      0.06000000	     68.63374452	      4.76747920	     -1.24462445	      0.55551809	      1.05824664	     -0.30520993	     -0.16499776	    -12.98552395	      0.89629297	    -63.11372377	    -18.25433542	     -3.27956290	      0.00000000	      1.82637089	     -5.91629385	      7.19550967	      1.88686027	    -20.10352000	     12.17387934	      0.00000000	      0.00000000	      0.00000000	      0.00000000
      0.07000000	     68.63140084	      4.76681199	     -1.24297754	      0.55552082	      1.05823855	     -0.30520378	     -0.16202327	    -12.98394313	      0.89845316	    -63.11509411	    -18.25201384	     -3.27951604	      0.00000000	      1.83183251	     -5.91848229	      7.18758130	      1.88382173	    -20.10224512	     12.15292441	      0.00000000	      0.00000000	      0.00000000	      0.00000000
      0.08000000	     68.62795665	      4.76718330	     -1.24110056	      0.55552085	      1.05824053	     -0.30519791	     -0.15888655	    -12.98362708	      0.90151087	    -63.11452343	    -18.25095998	     -3.27672368	      0.00000000	      1.83618548	     -5.91943706	      7.17475932	      1.88218787	    -20.10663810	     12.11831272	      0.00000000	      0.00000000	      0.00000000	      0.00000000
      0.09000000	     68.62377884	      4.76907680	     -1.23913163	      0.55552282	      1.05824438	     -0.30519401	     -0.15614558	    -12.98552493	      0.90571207	    -63.11075279	    -18.25140439	     -3.27112790	      0.00000000	      1.83954473	     -5.91841611	      7.15647721	      1.88236371	    -20.11745255	     12.07165437	      0.00000000	      0.00000000	      0.00000000	      0.00000000
